<?xml version="1.0" standalone="no"?>
<!DOCTYPE svg PUBLIC "-//W3C//DTD SVG 20010904//EN"
 "http://www.w3.org/TR/2001/REC-SVG-20010904/DTD/svg10.dtd">
<svg version="1.0" xmlns="http://www.w3.org/2000/svg"
 width="22.000000pt" height="36.000000pt" viewBox="0 0 22.000000 36.000000"
 preserveAspectRatio="xMidYMid meet">

<g transform="translate(0.000000,36.000000) scale(0.100000,-0.100000)"
fill="#464646" stroke="none">
<path d="M20 246 c0 -36 -4 -68 -10 -71 -15 -9 -12 -68 6 -103 l15 -32 89 0
c71 0 89 3 94 16 3 9 6 55 6 103 0 85 -1 88 -33 119 -30 30 -38 32 -100 32
l-67 0 0 -64z m132 27 c2 -22 9 -29 31 -31 l28 -3 -3 -92 -3 -92 -87 -3 c-83
-3 -88 -2 -88 18 0 18 6 20 75 20 l75 0 0 40 0 40 -75 0 -75 0 0 65 0 65 59 0
c58 0 60 -1 63 -27z m-7 -143 c0 -23 -4 -25 -58 -28 -44 -2 -59 1 -63 13 -11
28 14 43 69 41 48 -2 52 -4 52 -26z"/>
<path d="M40 130 c0 -5 7 -10 15 -10 8 0 15 5 15 10 0 6 -7 10 -15 10 -8 0
-15 -4 -15 -10z"/>
</g>
</svg>
